<svg xmlns="http://www.w3.org/2000/svg" version="1.1" xmlns:xlink="http://www.w3.org/1999/xlink" xmlns:svgjs="http://svgjs.com/svgjs" width="1440" height="560" preserveAspectRatio="none" viewBox="0 0 1440 560"><g mask="url(&quot;#SvgjsMask1017&quot;)" fill="none"><rect width="1440" height="560" x="0" y="0" fill="url(#SvgjsLinearGradient1018)"></rect><path d="M-44.38 410.73L-44.38 410.73" stroke="#132e65" stroke-width="1.5"></path><path d="M-44.38 410.73L-63.82 487.77" stroke="#132e65" stroke-width="1.5"></path><path d="M-44.38 410.73L103.09 382.88" stroke="#132e65" stroke-width="1.5"></path><path d="M-44.38 410.73L86.38 557.97" stroke="#132e65" stroke-width="1.5"></path><path d="M-44.38 410.73L39.13 644.25" stroke="#132e65" stroke-width="1.5"></path><path d="M-63.82 487.77L-63.82 487.77" stroke="#132e65" stroke-width="1.5"></path><path d="M-63.82 487.77L86.38 557.97" stroke="#132e65" stroke-width="1.5"></path><path d="M-91.8 711.88L-91.8 711.88" stroke="#132e65" stroke-width="1.5"></path><path d="M-91.8 711.88L39.13 644.25" stroke="#132e65" stroke-width="1.5"></path><path d="M103.09 382.88L103.09 382.88" stroke="#132e65" stroke-width="1.5"></path><path d="M103.09 382.88L214.81 344.82" stroke="#132e65" stroke-width="1.5"></path><path d="M86.38 557.97L86.38 557.97" stroke="#132e65" stroke-width="1.5"></path><path d="M86.38 557.97L39.13 644.25" stroke="#132e65" stroke-width="1.5"></path><path d="M39.13 644.25L39.13 644.25" stroke="#132e65" stroke-width="1.5"></path><path d="M214.81 344.82L214.81 344.82" stroke="#132e65" stroke-width="1.5"></path><path d="M214.81 344.82L366.9 372.78" stroke="#132e65" stroke-width="1.5"></path><path d="M214.81 344.82L254.55 528.32" stroke="#132e65" stroke-width="1.5"></path><path d="M214.81 344.82L86.38 557.97" stroke="#132e65" stroke-width="1.5"></path><path d="M214.81 344.82L389.63 541.23" stroke="#132e65" stroke-width="1.5"></path><path d="M214.81 344.82L-44.38 410.73" stroke="#132e65" stroke-width="1.5"></path><path d="M254.55 528.32L254.55 528.32" stroke="#132e65" stroke-width="1.5"></path><path d="M254.55 528.32L389.63 541.23" stroke="#132e65" stroke-width="1.5"></path><path d="M254.55 528.32L250.3 669.75" stroke="#132e65" stroke-width="1.5"></path><path d="M254.55 528.32L369.17 651.32" stroke="#132e65" stroke-width="1.5"></path><path d="M254.55 528.32L86.38 557.97" stroke="#132e65" stroke-width="1.5"></path><path d="M254.55 528.32L366.9 372.78" stroke="#132e65" stroke-width="1.5"></path><path d="M250.3 669.75L250.3 669.75" stroke="#132e65" stroke-width="1.5"></path><path d="M250.3 669.75L369.17 651.32" stroke="#132e65" stroke-width="1.5"></path><path d="M250.3 669.75L389.63 541.23" stroke="#132e65" stroke-width="1.5"></path><path d="M366.9 372.78L366.9 372.78" stroke="#132e65" stroke-width="1.5"></path><path d="M366.9 372.78L506.59 367.22" stroke="#132e65" stroke-width="1.5"></path><path d="M366.9 372.78L389.63 541.23" stroke="#132e65" stroke-width="1.5"></path><path d="M366.9 372.78L560.81 516.26" stroke="#132e65" stroke-width="1.5"></path><path d="M366.9 372.78L103.09 382.88" stroke="#132e65" stroke-width="1.5"></path><path d="M389.63 541.23L389.63 541.23" stroke="#132e65" stroke-width="1.5"></path><path d="M389.63 541.23L369.17 651.32" stroke="#132e65" stroke-width="1.5"></path><path d="M369.17 651.32L369.17 651.32" stroke="#132e65" stroke-width="1.5"></path><path d="M506.59 367.22L506.59 367.22" stroke="#132e65" stroke-width="1.5"></path><path d="M506.59 367.22L560.81 516.26" stroke="#132e65" stroke-width="1.5"></path><path d="M506.59 367.22L680.52 349.16" stroke="#132e65" stroke-width="1.5"></path><path d="M506.59 367.22L389.63 541.23" stroke="#132e65" stroke-width="1.5"></path><path d="M506.59 367.22L699.6 204.51" stroke="#132e65" stroke-width="1.5"></path><path d="M560.81 516.26L560.81 516.26" stroke="#132e65" stroke-width="1.5"></path><path d="M560.81 516.26L695.38 538.99" stroke="#132e65" stroke-width="1.5"></path><path d="M560.81 516.26L516.03 667.26" stroke="#132e65" stroke-width="1.5"></path><path d="M516.03 667.26L516.03 667.26" stroke="#132e65" stroke-width="1.5"></path><path d="M516.03 667.26L369.17 651.32" stroke="#132e65" stroke-width="1.5"></path><path d="M699.6 204.51L699.6 204.51" stroke="#132e65" stroke-width="1.5"></path><path d="M699.6 204.51L831.74 249.66" stroke="#132e65" stroke-width="1.5"></path><path d="M699.6 204.51L680.52 349.16" stroke="#132e65" stroke-width="1.5"></path><path d="M680.52 349.16L680.52 349.16" stroke="#132e65" stroke-width="1.5"></path><path d="M680.52 349.16L813.56 358.76" stroke="#132e65" stroke-width="1.5"></path><path d="M695.38 538.99L695.38 538.99" stroke="#132e65" stroke-width="1.5"></path><path d="M695.38 538.99L712.37 656.38" stroke="#132e65" stroke-width="1.5"></path><path d="M695.38 538.99L830.53 555.92" stroke="#132e65" stroke-width="1.5"></path><path d="M712.37 656.38L712.37 656.38" stroke="#132e65" stroke-width="1.5"></path><path d="M712.37 656.38L804.03 638.46" stroke="#132e65" stroke-width="1.5"></path><path d="M712.37 656.38L830.53 555.92" stroke="#132e65" stroke-width="1.5"></path><path d="M712.37 656.38L516.03 667.26" stroke="#132e65" stroke-width="1.5"></path><path d="M712.37 656.38L560.81 516.26" stroke="#132e65" stroke-width="1.5"></path><path d="M712.37 656.38L958.05 712.21" stroke="#132e65" stroke-width="1.5"></path><path d="M831.74 249.66L831.74 249.66" stroke="#132e65" stroke-width="1.5"></path><path d="M831.74 249.66L813.56 358.76" stroke="#132e65" stroke-width="1.5"></path><path d="M831.74 249.66L950.05 191.42" stroke="#132e65" stroke-width="1.5"></path><path d="M831.74 249.66L680.52 349.16" stroke="#132e65" stroke-width="1.5"></path><path d="M831.74 249.66L987.48 396.8" stroke="#132e65" stroke-width="1.5"></path><path d="M831.74 249.66L1100.22 251.41" stroke="#132e65" stroke-width="1.5"></path><path d="M813.56 358.76L813.56 358.76" stroke="#132e65" stroke-width="1.5"></path><path d="M813.56 358.76L987.48 396.8" stroke="#132e65" stroke-width="1.5"></path><path d="M813.56 358.76L699.6 204.51" stroke="#132e65" stroke-width="1.5"></path><path d="M813.56 358.76L830.53 555.92" stroke="#132e65" stroke-width="1.5"></path><path d="M813.56 358.76L695.38 538.99" stroke="#132e65" stroke-width="1.5"></path><path d="M830.53 555.92L830.53 555.92" stroke="#132e65" stroke-width="1.5"></path><path d="M830.53 555.92L804.03 638.46" stroke="#132e65" stroke-width="1.5"></path><path d="M830.53 555.92L964.82 562.2" stroke="#132e65" stroke-width="1.5"></path><path d="M804.03 638.46L804.03 638.46" stroke="#132e65" stroke-width="1.5"></path><path d="M940.24 -52.46L940.24 -52.46" stroke="#132e65" stroke-width="1.5"></path><path d="M940.24 -52.46L1009.06 42.96" stroke="#132e65" stroke-width="1.5"></path><path d="M940.24 -52.46L950.05 191.42" stroke="#132e65" stroke-width="1.5"></path><path d="M940.24 -52.46L1139.41 106.75" stroke="#132e65" stroke-width="1.5"></path><path d="M940.24 -52.46L831.74 249.66" stroke="#132e65" stroke-width="1.5"></path><path d="M1009.06 42.96L1009.06 42.96" stroke="#132e65" stroke-width="1.5"></path><path d="M1009.06 42.96L1139.41 106.75" stroke="#132e65" stroke-width="1.5"></path><path d="M1009.06 42.96L950.05 191.42" stroke="#132e65" stroke-width="1.5"></path><path d="M1009.06 42.96L1100.22 251.41" stroke="#132e65" stroke-width="1.5"></path><path d="M950.05 191.42L950.05 191.42" stroke="#132e65" stroke-width="1.5"></path><path d="M950.05 191.42L1100.22 251.41" stroke="#132e65" stroke-width="1.5"></path><path d="M987.48 396.8L987.48 396.8" stroke="#132e65" stroke-width="1.5"></path><path d="M987.48 396.8L1114.85 355.21" stroke="#132e65" stroke-width="1.5"></path><path d="M987.48 396.8L964.82 562.2" stroke="#132e65" stroke-width="1.5"></path><path d="M987.48 396.8L1100.22 251.41" stroke="#132e65" stroke-width="1.5"></path><path d="M964.82 562.2L964.82 562.2" stroke="#132e65" stroke-width="1.5"></path><path d="M964.82 562.2L1102.29 545.72" stroke="#132e65" stroke-width="1.5"></path><path d="M964.82 562.2L958.05 712.21" stroke="#132e65" stroke-width="1.5"></path><path d="M958.05 712.21L958.05 712.21" stroke="#132e65" stroke-width="1.5"></path><path d="M958.05 712.21L804.03 638.46" stroke="#132e65" stroke-width="1.5"></path><path d="M958.05 712.21L830.53 555.92" stroke="#132e65" stroke-width="1.5"></path><path d="M958.05 712.21L1160.7 708.57" stroke="#132e65" stroke-width="1.5"></path><path d="M958.05 712.21L1102.29 545.72" stroke="#132e65" stroke-width="1.5"></path><path d="M1139.41 106.75L1139.41 106.75" stroke="#132e65" stroke-width="1.5"></path><path d="M1139.41 106.75L1100.22 251.41" stroke="#132e65" stroke-width="1.5"></path><path d="M1139.41 106.75L1265.75 204.9" stroke="#132e65" stroke-width="1.5"></path><path d="M1139.41 106.75L1299.44 41.51" stroke="#132e65" stroke-width="1.5"></path><path d="M1100.22 251.41L1100.22 251.41" stroke="#132e65" stroke-width="1.5"></path><path d="M1100.22 251.41L1114.85 355.21" stroke="#132e65" stroke-width="1.5"></path><path d="M1100.22 251.41L1265.75 204.9" stroke="#132e65" stroke-width="1.5"></path><path d="M1114.85 355.21L1114.85 355.21" stroke="#132e65" stroke-width="1.5"></path><path d="M1114.85 355.21L1280.25 399.65" stroke="#132e65" stroke-width="1.5"></path><path d="M1102.29 545.72L1102.29 545.72" stroke="#132e65" stroke-width="1.5"></path><path d="M1102.29 545.72L1257.73 557.44" stroke="#132e65" stroke-width="1.5"></path><path d="M1102.29 545.72L1160.7 708.57" stroke="#132e65" stroke-width="1.5"></path><path d="M1160.7 708.57L1160.7 708.57" stroke="#132e65" stroke-width="1.5"></path><path d="M1160.7 708.57L1255.06 657.11" stroke="#132e65" stroke-width="1.5"></path><path d="M1160.7 708.57L1257.73 557.44" stroke="#132e65" stroke-width="1.5"></path><path d="M1160.7 708.57L964.82 562.2" stroke="#132e65" stroke-width="1.5"></path><path d="M1273.3 -87.71L1273.3 -87.71" stroke="#132e65" stroke-width="1.5"></path><path d="M1273.3 -87.71L1397.7 -97.67" stroke="#132e65" stroke-width="1.5"></path><path d="M1273.3 -87.71L1299.44 41.51" stroke="#132e65" stroke-width="1.5"></path><path d="M1273.3 -87.71L1139.41 106.75" stroke="#132e65" stroke-width="1.5"></path><path d="M1273.3 -87.71L1461.75 96.99" stroke="#132e65" stroke-width="1.5"></path><path d="M1273.3 -87.71L1563.15 -73.69" stroke="#132e65" stroke-width="1.5"></path><path d="M1299.44 41.51L1299.44 41.51" stroke="#132e65" stroke-width="1.5"></path><path d="M1299.44 41.51L1265.75 204.9" stroke="#132e65" stroke-width="1.5"></path><path d="M1299.44 41.51L1397.7 -97.67" stroke="#132e65" stroke-width="1.5"></path><path d="M1299.44 41.51L1461.75 96.99" stroke="#132e65" stroke-width="1.5"></path><path d="M1265.75 204.9L1265.75 204.9" stroke="#132e65" stroke-width="1.5"></path><path d="M1265.75 204.9L1390.97 217.06" stroke="#132e65" stroke-width="1.5"></path><path d="M1280.25 399.65L1280.25 399.65" stroke="#132e65" stroke-width="1.5"></path><path d="M1280.25 399.65L1257.73 557.44" stroke="#132e65" stroke-width="1.5"></path><path d="M1280.25 399.65L1459.8 371.92" stroke="#132e65" stroke-width="1.5"></path><path d="M1280.25 399.65L1265.75 204.9" stroke="#132e65" stroke-width="1.5"></path><path d="M1257.73 557.44L1257.73 557.44" stroke="#132e65" stroke-width="1.5"></path><path d="M1257.73 557.44L1255.06 657.11" stroke="#132e65" stroke-width="1.5"></path><path d="M1257.73 557.44L1442.46 555.95" stroke="#132e65" stroke-width="1.5"></path><path d="M1255.06 657.11L1255.06 657.11" stroke="#132e65" stroke-width="1.5"></path><path d="M1255.06 657.11L1413.55 658.67" stroke="#132e65" stroke-width="1.5"></path><path d="M1397.7 -97.67L1397.7 -97.67" stroke="#132e65" stroke-width="1.5"></path><path d="M1397.7 -97.67L1563.15 -73.69" stroke="#132e65" stroke-width="1.5"></path><path d="M1397.7 -97.67L1461.75 96.99" stroke="#132e65" stroke-width="1.5"></path><path d="M1461.75 96.99L1461.75 96.99" stroke="#132e65" stroke-width="1.5"></path><path d="M1461.75 96.99L1586.35 100.94" stroke="#132e65" stroke-width="1.5"></path><path d="M1461.75 96.99L1390.97 217.06" stroke="#132e65" stroke-width="1.5"></path><path d="M1461.75 96.99L1576.36 217.73" stroke="#132e65" stroke-width="1.5"></path><path d="M1390.97 217.06L1390.97 217.06" stroke="#132e65" stroke-width="1.5"></path><path d="M1459.8 371.92L1459.8 371.92" stroke="#132e65" stroke-width="1.5"></path><path d="M1459.8 371.92L1610.08 396.33" stroke="#132e65" stroke-width="1.5"></path><path d="M1459.8 371.92L1390.97 217.06" stroke="#132e65" stroke-width="1.5"></path><path d="M1459.8 371.92L1442.46 555.95" stroke="#132e65" stroke-width="1.5"></path><path d="M1459.8 371.92L1576.36 217.73" stroke="#132e65" stroke-width="1.5"></path><path d="M1459.8 371.92L1611.85 537.89" stroke="#132e65" stroke-width="1.5"></path><path d="M1442.46 555.95L1442.46 555.95" stroke="#132e65" stroke-width="1.5"></path><path d="M1442.46 555.95L1413.55 658.67" stroke="#132e65" stroke-width="1.5"></path><path d="M1442.46 555.95L1611.85 537.89" stroke="#132e65" stroke-width="1.5"></path><path d="M1442.46 555.95L1580.44 677.22" stroke="#132e65" stroke-width="1.5"></path><path d="M1442.46 555.95L1255.06 657.11" stroke="#132e65" stroke-width="1.5"></path><path d="M1413.55 658.67L1413.55 658.67" stroke="#132e65" stroke-width="1.5"></path><path d="M1413.55 658.67L1580.44 677.22" stroke="#132e65" stroke-width="1.5"></path><path d="M1413.55 658.67L1257.73 557.44" stroke="#132e65" stroke-width="1.5"></path><path d="M1413.55 658.67L1611.85 537.89" stroke="#132e65" stroke-width="1.5"></path><path d="M1563.15 -73.69L1563.15 -73.69" stroke="#132e65" stroke-width="1.5"></path><path d="M1563.15 -73.69L1586.35 100.94" stroke="#132e65" stroke-width="1.5"></path><path d="M1586.35 100.94L1586.35 100.94" stroke="#132e65" stroke-width="1.5"></path><path d="M1586.35 100.94L1576.36 217.73" stroke="#132e65" stroke-width="1.5"></path><path d="M1576.36 217.73L1576.36 217.73" stroke="#132e65" stroke-width="1.5"></path><path d="M1576.36 217.73L1610.08 396.33" stroke="#132e65" stroke-width="1.5"></path><path d="M1576.36 217.73L1390.97 217.06" stroke="#132e65" stroke-width="1.5"></path><path d="M1610.08 396.33L1610.08 396.33" stroke="#132e65" stroke-width="1.5"></path><path d="M1610.08 396.33L1611.85 537.89" stroke="#132e65" stroke-width="1.5"></path><path d="M1611.85 537.89L1611.85 537.89" stroke="#132e65" stroke-width="1.5"></path><path d="M1611.85 537.89L1580.44 677.22" stroke="#132e65" stroke-width="1.5"></path><path d="M1580.44 677.22L1580.44 677.22" stroke="#132e65" stroke-width="1.5"></path><path d="M1580.44 677.22L1610.08 396.33" stroke="#132e65" stroke-width="1.5"></path><path d="M1580.44 677.22L1255.06 657.11" stroke="#132e65" stroke-width="1.5"></path><circle r="5" cx="-44.38" cy="410.73" fill="#132e65"></circle><circle r="5" cx="-63.82" cy="487.77" fill="#132e65"></circle><circle r="5" cx="-91.8" cy="711.88" fill="#132e65"></circle><circle r="5" cx="103.09" cy="382.88" fill="#132e65"></circle><circle r="5" cx="86.38" cy="557.97" fill="#132e65"></circle><circle r="5" cx="39.13" cy="644.25" fill="#132e65"></circle><circle r="5" cx="214.81" cy="344.82" fill="#132e65"></circle><circle r="5" cx="254.55" cy="528.32" fill="#132e65"></circle><circle r="5" cx="250.3" cy="669.75" fill="#132e65"></circle><circle r="5" cx="366.9" cy="372.78" fill="#132e65"></circle><circle r="5" cx="389.63" cy="541.23" fill="#132e65"></circle><circle r="5" cx="369.17" cy="651.32" fill="#132e65"></circle><circle r="5" cx="506.59" cy="367.22" fill="#132e65"></circle><circle r="5" cx="560.81" cy="516.26" fill="#132e65"></circle><circle r="5" cx="516.03" cy="667.26" fill="#132e65"></circle><circle r="5" cx="699.6" cy="204.51" fill="#132e65"></circle><circle r="5" cx="680.52" cy="349.16" fill="#132e65"></circle><circle r="5" cx="695.38" cy="538.99" fill="#132e65"></circle><circle r="5" cx="712.37" cy="656.38" fill="#132e65"></circle><circle r="5" cx="831.74" cy="249.66" fill="#132e65"></circle><circle r="5" cx="813.56" cy="358.76" fill="#132e65"></circle><circle r="5" cx="830.53" cy="555.92" fill="#132e65"></circle><circle r="5" cx="804.03" cy="638.46" fill="#132e65"></circle><circle r="5" cx="940.24" cy="-52.46" fill="#132e65"></circle><circle r="5" cx="1009.06" cy="42.96" fill="#132e65"></circle><circle r="5" cx="950.05" cy="191.42" fill="#132e65"></circle><circle r="5" cx="987.48" cy="396.8" fill="#132e65"></circle><circle r="5" cx="964.82" cy="562.2" fill="#132e65"></circle><circle r="5" cx="958.05" cy="712.21" fill="#132e65"></circle><circle r="5" cx="1139.41" cy="106.75" fill="#132e65"></circle><circle r="5" cx="1100.22" cy="251.41" fill="#132e65"></circle><circle r="5" cx="1114.85" cy="355.21" fill="#132e65"></circle><circle r="5" cx="1102.29" cy="545.72" fill="#132e65"></circle><circle r="5" cx="1160.7" cy="708.57" fill="#132e65"></circle><circle r="5" cx="1273.3" cy="-87.71" fill="#132e65"></circle><circle r="5" cx="1299.44" cy="41.51" fill="#132e65"></circle><circle r="5" cx="1265.75" cy="204.9" fill="#132e65"></circle><circle r="5" cx="1280.25" cy="399.65" fill="#132e65"></circle><circle r="5" cx="1257.73" cy="557.44" fill="#132e65"></circle><circle r="5" cx="1255.06" cy="657.11" fill="#132e65"></circle><circle r="5" cx="1397.7" cy="-97.67" fill="#132e65"></circle><circle r="5" cx="1461.75" cy="96.99" fill="#132e65"></circle><circle r="5" cx="1390.97" cy="217.06" fill="#132e65"></circle><circle r="5" cx="1459.8" cy="371.92" fill="#132e65"></circle><circle r="5" cx="1442.46" cy="555.95" fill="#132e65"></circle><circle r="5" cx="1413.55" cy="658.67" fill="#132e65"></circle><circle r="5" cx="1563.15" cy="-73.69" fill="#132e65"></circle><circle r="5" cx="1586.35" cy="100.94" fill="#132e65"></circle><circle r="5" cx="1576.36" cy="217.73" fill="#132e65"></circle><circle r="5" cx="1610.08" cy="396.33" fill="#132e65"></circle><circle r="5" cx="1611.85" cy="537.89" fill="#132e65"></circle><circle r="5" cx="1580.44" cy="677.22" fill="#132e65"></circle><path d="M-49.7 678.08L-49.7 678.08" stroke="hsl(228.5, 77.2%, 51.5%)" stroke-width="1.5"></path><path d="M-49.7 678.08L70.36 699.68" stroke="hsl(228.5, 77.2%, 51.5%)" stroke-width="1.5"></path><path d="M-49.7 678.08L-40.43 504.97" stroke="hsl(228.5, 77.2%, 51.5%)" stroke-width="1.5"></path><path d="M-49.7 678.08L37.85 513.59" stroke="hsl(228.5, 77.2%, 51.5%)" stroke-width="1.5"></path><path d="M-49.7 678.08L225.2 706.08" stroke="hsl(228.5, 77.2%, 51.5%)" stroke-width="1.5"></path><path d="M400.2 644.09L400.2 644.09" stroke="hsl(228.5, 77.2%, 51.5%)" stroke-width="1.5"></path><path d="M400.2 644.09L549.79 664.79" stroke="hsl(228.5, 77.2%, 51.5%)" stroke-width="1.5"></path><path d="M400.2 644.09L513.93 505.45" stroke="hsl(228.5, 77.2%, 51.5%)" stroke-width="1.5"></path><path d="M400.2 644.09L225.2 706.08" stroke="hsl(228.5, 77.2%, 51.5%)" stroke-width="1.5"></path><path d="M400.2 644.09L219.65 500.69" stroke="hsl(228.5, 77.2%, 51.5%)" stroke-width="1.5"></path><path d="M400.2 644.09L695.22 646.03" stroke="hsl(228.5, 77.2%, 51.5%)" stroke-width="1.5"></path><path d="M695.22 646.03L695.22 646.03" stroke="hsl(228.5, 77.2%, 51.5%)" stroke-width="1.5"></path><path d="M695.22 646.03L699.67 539.93" stroke="hsl(228.5, 77.2%, 51.5%)" stroke-width="1.5"></path><path d="M695.22 646.03L549.79 664.79" stroke="hsl(228.5, 77.2%, 51.5%)" stroke-width="1.5"></path><path d="M695.22 646.03L816.85 517.05" stroke="hsl(228.5, 77.2%, 51.5%)" stroke-width="1.5"></path><path d="M695.22 646.03L513.93 505.45" stroke="hsl(228.5, 77.2%, 51.5%)" stroke-width="1.5"></path><path d="M695.22 646.03L805.71 410.65" stroke="hsl(228.5, 77.2%, 51.5%)" stroke-width="1.5"></path><path d="M1151.69 67.09L1151.69 67.09" stroke="hsl(228.5, 77.2%, 51.5%)" stroke-width="1.5"></path><path d="M1151.69 67.09L1261.15 90.8" stroke="hsl(228.5, 77.2%, 51.5%)" stroke-width="1.5"></path><path d="M1151.69 67.09L1110.33 229.61" stroke="hsl(228.5, 77.2%, 51.5%)" stroke-width="1.5"></path><path d="M1151.69 67.09L1248.2 -72.59" stroke="hsl(228.5, 77.2%, 51.5%)" stroke-width="1.5"></path><path d="M1151.69 67.09L1300.6 223.14" stroke="hsl(228.5, 77.2%, 51.5%)" stroke-width="1.5"></path><path d="M1151.69 67.09L1409.38 -53.16" stroke="hsl(228.5, 77.2%, 51.5%)" stroke-width="1.5"></path><path d="M1151.69 67.09L1407.93 210.97" stroke="hsl(228.5, 77.2%, 51.5%)" stroke-width="1.5"></path><path d="M1138.19 495.49L1138.19 495.49" stroke="hsl(228.5, 77.2%, 51.5%)" stroke-width="1.5"></path><path d="M1138.19 495.49L1158.78 401.46" stroke="hsl(228.5, 77.2%, 51.5%)" stroke-width="1.5"></path><path d="M1138.19 495.49L1003.04 531.82" stroke="hsl(228.5, 77.2%, 51.5%)" stroke-width="1.5"></path><path d="M1261.15 90.8L1261.15 90.8" stroke="hsl(228.5, 77.2%, 51.5%)" stroke-width="1.5"></path><path d="M1261.15 90.8L1300.6 223.14" stroke="hsl(228.5, 77.2%, 51.5%)" stroke-width="1.5"></path><path d="M1461.97 46.02L1461.97 46.02" stroke="hsl(228.5, 77.2%, 51.5%)" stroke-width="1.5"></path><path d="M1461.97 46.02L1409.38 -53.16" stroke="hsl(228.5, 77.2%, 51.5%)" stroke-width="1.5"></path><path d="M1461.97 46.02L1592.83 70.11" stroke="hsl(228.5, 77.2%, 51.5%)" stroke-width="1.5"></path><path d="M1461.97 46.02L1407.93 210.97" stroke="hsl(228.5, 77.2%, 51.5%)" stroke-width="1.5"></path><path d="M1461.97 46.02L1261.15 90.8" stroke="hsl(228.5, 77.2%, 51.5%)" stroke-width="1.5"></path><path d="M1461.97 46.02L1599.48 230.69" stroke="hsl(228.5, 77.2%, 51.5%)" stroke-width="1.5"></path><path d="M1461.97 46.02L1300.6 223.14" stroke="hsl(228.5, 77.2%, 51.5%)" stroke-width="1.5"></path><path d="M1407.93 210.97L1407.93 210.97" stroke="hsl(228.5, 77.2%, 51.5%)" stroke-width="1.5"></path><path d="M1407.93 210.97L1300.6 223.14" stroke="hsl(228.5, 77.2%, 51.5%)" stroke-width="1.5"></path><path d="M1407.93 210.97L1452.56 360.75" stroke="hsl(228.5, 77.2%, 51.5%)" stroke-width="1.5"></path><path d="M1407.93 210.97L1261.15 90.8" stroke="hsl(228.5, 77.2%, 51.5%)" stroke-width="1.5"></path><path d="M1407.93 210.97L1599.48 230.69" stroke="hsl(228.5, 77.2%, 51.5%)" stroke-width="1.5"></path><path d="M1407.93 210.97L1268.21 391.9" stroke="hsl(228.5, 77.2%, 51.5%)" stroke-width="1.5"></path><path d="M1592.83 70.11L1592.83 70.11" stroke="hsl(228.5, 77.2%, 51.5%)" stroke-width="1.5"></path><path d="M1592.83 70.11L1599.48 230.69" stroke="hsl(228.5, 77.2%, 51.5%)" stroke-width="1.5"></path><path d="M1592.83 70.11L1409.38 -53.16" stroke="hsl(228.5, 77.2%, 51.5%)" stroke-width="1.5"></path><path d="M1592.83 70.11L1407.93 210.97" stroke="hsl(228.5, 77.2%, 51.5%)" stroke-width="1.5"></path><path d="M1599.48 230.69L1599.48 230.69" stroke="hsl(228.5, 77.2%, 51.5%)" stroke-width="1.5"></path><path d="M1599.48 230.69L1573.53 389.31" stroke="hsl(228.5, 77.2%, 51.5%)" stroke-width="1.5"></path><path d="M1599.48 230.69L1452.56 360.75" stroke="hsl(228.5, 77.2%, 51.5%)" stroke-width="1.5"></path><path d="M1573.53 389.31L1573.53 389.31" stroke="hsl(228.5, 77.2%, 51.5%)" stroke-width="1.5"></path><path d="M1573.53 389.31L1452.56 360.75" stroke="hsl(228.5, 77.2%, 51.5%)" stroke-width="1.5"></path><path d="M1573.53 389.31L1538.56 534.78" stroke="hsl(228.5, 77.2%, 51.5%)" stroke-width="1.5"></path><path d="M-40.43 504.97L-40.43 504.97" stroke="hsl(228.5, 77.2%, 51.5%)" stroke-width="1.5"></path><path d="M-40.43 504.97L37.85 513.59" stroke="hsl(228.5, 77.2%, 51.5%)" stroke-width="1.5"></path><path d="M-40.43 504.97L70.36 699.68" stroke="hsl(228.5, 77.2%, 51.5%)" stroke-width="1.5"></path><path d="M37.85 513.59L37.85 513.59" stroke="hsl(228.5, 77.2%, 51.5%)" stroke-width="1.5"></path><path d="M37.85 513.59L219.65 500.69" stroke="hsl(228.5, 77.2%, 51.5%)" stroke-width="1.5"></path><path d="M37.85 513.59L70.36 699.68" stroke="hsl(228.5, 77.2%, 51.5%)" stroke-width="1.5"></path><path d="M37.85 513.59L225.2 706.08" stroke="hsl(228.5, 77.2%, 51.5%)" stroke-width="1.5"></path><path d="M70.36 699.68L70.36 699.68" stroke="hsl(228.5, 77.2%, 51.5%)" stroke-width="1.5"></path><path d="M70.36 699.68L225.2 706.08" stroke="hsl(228.5, 77.2%, 51.5%)" stroke-width="1.5"></path><path d="M70.36 699.68L219.65 500.69" stroke="hsl(228.5, 77.2%, 51.5%)" stroke-width="1.5"></path><path d="M70.36 699.68L400.2 644.09" stroke="hsl(228.5, 77.2%, 51.5%)" stroke-width="1.5"></path><path d="M219.65 500.69L219.65 500.69" stroke="hsl(228.5, 77.2%, 51.5%)" stroke-width="1.5"></path><path d="M219.65 500.69L225.2 706.08" stroke="hsl(228.5, 77.2%, 51.5%)" stroke-width="1.5"></path><path d="M219.65 500.69L-40.43 504.97" stroke="hsl(228.5, 77.2%, 51.5%)" stroke-width="1.5"></path><path d="M219.65 500.69L513.93 505.45" stroke="hsl(228.5, 77.2%, 51.5%)" stroke-width="1.5"></path><path d="M225.2 706.08L225.2 706.08" stroke="hsl(228.5, 77.2%, 51.5%)" stroke-width="1.5"></path><path d="M513.93 505.45L513.93 505.45" stroke="hsl(228.5, 77.2%, 51.5%)" stroke-width="1.5"></path><path d="M513.93 505.45L549.79 664.79" stroke="hsl(228.5, 77.2%, 51.5%)" stroke-width="1.5"></path><path d="M513.93 505.45L699.67 539.93" stroke="hsl(228.5, 77.2%, 51.5%)" stroke-width="1.5"></path><path d="M513.93 505.45L664.89 372.8" stroke="hsl(228.5, 77.2%, 51.5%)" stroke-width="1.5"></path><path d="M549.79 664.79L549.79 664.79" stroke="hsl(228.5, 77.2%, 51.5%)" stroke-width="1.5"></path><path d="M549.79 664.79L699.67 539.93" stroke="hsl(228.5, 77.2%, 51.5%)" stroke-width="1.5"></path><path d="M549.79 664.79L816.85 517.05" stroke="hsl(228.5, 77.2%, 51.5%)" stroke-width="1.5"></path><path d="M664.89 372.8L664.89 372.8" stroke="hsl(228.5, 77.2%, 51.5%)" stroke-width="1.5"></path><path d="M664.89 372.8L805.71 410.65" stroke="hsl(228.5, 77.2%, 51.5%)" stroke-width="1.5"></path><path d="M664.89 372.8L699.67 539.93" stroke="hsl(228.5, 77.2%, 51.5%)" stroke-width="1.5"></path><path d="M664.89 372.8L816.85 517.05" stroke="hsl(228.5, 77.2%, 51.5%)" stroke-width="1.5"></path><path d="M699.67 539.93L699.67 539.93" stroke="hsl(228.5, 77.2%, 51.5%)" stroke-width="1.5"></path><path d="M699.67 539.93L816.85 517.05" stroke="hsl(228.5, 77.2%, 51.5%)" stroke-width="1.5"></path><path d="M805.71 410.65L805.71 410.65" stroke="hsl(228.5, 77.2%, 51.5%)" stroke-width="1.5"></path><path d="M805.71 410.65L816.85 517.05" stroke="hsl(228.5, 77.2%, 51.5%)" stroke-width="1.5"></path><path d="M805.71 410.65L937.93 341.32" stroke="hsl(228.5, 77.2%, 51.5%)" stroke-width="1.5"></path><path d="M805.71 410.65L699.67 539.93" stroke="hsl(228.5, 77.2%, 51.5%)" stroke-width="1.5"></path><path d="M805.71 410.65L1003.04 531.82" stroke="hsl(228.5, 77.2%, 51.5%)" stroke-width="1.5"></path><path d="M816.85 517.05L816.85 517.05" stroke="hsl(228.5, 77.2%, 51.5%)" stroke-width="1.5"></path><path d="M816.85 517.05L1003.04 531.82" stroke="hsl(228.5, 77.2%, 51.5%)" stroke-width="1.5"></path><path d="M816.85 517.05L937.93 341.32" stroke="hsl(228.5, 77.2%, 51.5%)" stroke-width="1.5"></path><path d="M937.93 341.32L937.93 341.32" stroke="hsl(228.5, 77.2%, 51.5%)" stroke-width="1.5"></path><path d="M937.93 341.32L1003.04 531.82" stroke="hsl(228.5, 77.2%, 51.5%)" stroke-width="1.5"></path><path d="M937.93 341.32L1110.33 229.61" stroke="hsl(228.5, 77.2%, 51.5%)" stroke-width="1.5"></path><path d="M937.93 341.32L1158.78 401.46" stroke="hsl(228.5, 77.2%, 51.5%)" stroke-width="1.5"></path><path d="M937.93 341.32L1138.19 495.49" stroke="hsl(228.5, 77.2%, 51.5%)" stroke-width="1.5"></path><path d="M1003.04 531.82L1003.04 531.82" stroke="hsl(228.5, 77.2%, 51.5%)" stroke-width="1.5"></path><path d="M1003.04 531.82L1001.58 662.14" stroke="hsl(228.5, 77.2%, 51.5%)" stroke-width="1.5"></path><path d="M1003.04 531.82L1131.16 677.26" stroke="hsl(228.5, 77.2%, 51.5%)" stroke-width="1.5"></path><path d="M1001.58 662.14L1001.58 662.14" stroke="hsl(228.5, 77.2%, 51.5%)" stroke-width="1.5"></path><path d="M1001.58 662.14L1131.16 677.26" stroke="hsl(228.5, 77.2%, 51.5%)" stroke-width="1.5"></path><path d="M1001.58 662.14L1138.19 495.49" stroke="hsl(228.5, 77.2%, 51.5%)" stroke-width="1.5"></path><path d="M1110.33 229.61L1110.33 229.61" stroke="hsl(228.5, 77.2%, 51.5%)" stroke-width="1.5"></path><path d="M1110.33 229.61L1158.78 401.46" stroke="hsl(228.5, 77.2%, 51.5%)" stroke-width="1.5"></path><path d="M1110.33 229.61L1300.6 223.14" stroke="hsl(228.5, 77.2%, 51.5%)" stroke-width="1.5"></path><path d="M1158.78 401.46L1158.78 401.46" stroke="hsl(228.5, 77.2%, 51.5%)" stroke-width="1.5"></path><path d="M1158.78 401.46L1268.21 391.9" stroke="hsl(228.5, 77.2%, 51.5%)" stroke-width="1.5"></path><path d="M1158.78 401.46L1003.04 531.82" stroke="hsl(228.5, 77.2%, 51.5%)" stroke-width="1.5"></path><path d="M1158.78 401.46L1300.6 223.14" stroke="hsl(228.5, 77.2%, 51.5%)" stroke-width="1.5"></path><path d="M1131.16 677.26L1131.16 677.26" stroke="hsl(228.5, 77.2%, 51.5%)" stroke-width="1.5"></path><path d="M1131.16 677.26L1252.93 709.82" stroke="hsl(228.5, 77.2%, 51.5%)" stroke-width="1.5"></path><path d="M1131.16 677.26L1138.19 495.49" stroke="hsl(228.5, 77.2%, 51.5%)" stroke-width="1.5"></path><path d="M1248.2 -72.59L1248.2 -72.59" stroke="hsl(228.5, 77.2%, 51.5%)" stroke-width="1.5"></path><path d="M1248.2 -72.59L1409.38 -53.16" stroke="hsl(228.5, 77.2%, 51.5%)" stroke-width="1.5"></path><path d="M1248.2 -72.59L1261.15 90.8" stroke="hsl(228.5, 77.2%, 51.5%)" stroke-width="1.5"></path><path d="M1300.6 223.14L1300.6 223.14" stroke="hsl(228.5, 77.2%, 51.5%)" stroke-width="1.5"></path><path d="M1300.6 223.14L1268.21 391.9" stroke="hsl(228.5, 77.2%, 51.5%)" stroke-width="1.5"></path><path d="M1268.21 391.9L1268.21 391.9" stroke="hsl(228.5, 77.2%, 51.5%)" stroke-width="1.5"></path><path d="M1268.21 391.9L1138.19 495.49" stroke="hsl(228.5, 77.2%, 51.5%)" stroke-width="1.5"></path><path d="M1268.21 391.9L1452.56 360.75" stroke="hsl(228.5, 77.2%, 51.5%)" stroke-width="1.5"></path><path d="M1268.21 391.9L1427.3 518.88" stroke="hsl(228.5, 77.2%, 51.5%)" stroke-width="1.5"></path><path d="M1268.21 391.9L1110.33 229.61" stroke="hsl(228.5, 77.2%, 51.5%)" stroke-width="1.5"></path><path d="M1252.93 709.82L1252.93 709.82" stroke="hsl(228.5, 77.2%, 51.5%)" stroke-width="1.5"></path><path d="M1252.93 709.82L1458.67 649.73" stroke="hsl(228.5, 77.2%, 51.5%)" stroke-width="1.5"></path><path d="M1409.38 -53.16L1409.38 -53.16" stroke="hsl(228.5, 77.2%, 51.5%)" stroke-width="1.5"></path><path d="M1409.38 -53.16L1261.15 90.8" stroke="hsl(228.5, 77.2%, 51.5%)" stroke-width="1.5"></path><path d="M1452.56 360.75L1452.56 360.75" stroke="hsl(228.5, 77.2%, 51.5%)" stroke-width="1.5"></path><path d="M1452.56 360.75L1427.3 518.88" stroke="hsl(228.5, 77.2%, 51.5%)" stroke-width="1.5"></path><path d="M1452.56 360.75L1538.56 534.78" stroke="hsl(228.5, 77.2%, 51.5%)" stroke-width="1.5"></path><path d="M1427.3 518.88L1427.3 518.88" stroke="hsl(228.5, 77.2%, 51.5%)" stroke-width="1.5"></path><path d="M1427.3 518.88L1538.56 534.78" stroke="hsl(228.5, 77.2%, 51.5%)" stroke-width="1.5"></path><path d="M1427.3 518.88L1458.67 649.73" stroke="hsl(228.5, 77.2%, 51.5%)" stroke-width="1.5"></path><path d="M1458.67 649.73L1458.67 649.73" stroke="hsl(228.5, 77.2%, 51.5%)" stroke-width="1.5"></path><path d="M1458.67 649.73L1543.48 646.61" stroke="hsl(228.5, 77.2%, 51.5%)" stroke-width="1.5"></path><path d="M1458.67 649.73L1538.56 534.78" stroke="hsl(228.5, 77.2%, 51.5%)" stroke-width="1.5"></path><path d="M1538.56 534.78L1538.56 534.78" stroke="hsl(228.5, 77.2%, 51.5%)" stroke-width="1.5"></path><path d="M1538.56 534.78L1543.48 646.61" stroke="hsl(228.5, 77.2%, 51.5%)" stroke-width="1.5"></path><path d="M1543.48 646.61L1543.48 646.61" stroke="hsl(228.5, 77.2%, 51.5%)" stroke-width="1.5"></path><path d="M1543.48 646.61L1427.3 518.88" stroke="hsl(228.5, 77.2%, 51.5%)" stroke-width="1.5"></path><circle r="25" cx="-49.7" cy="678.08" fill="url(#SvgjsRadialGradient1019)"></circle><circle r="25" cx="400.2" cy="644.09" fill="url(#SvgjsRadialGradient1019)"></circle><circle r="25" cx="695.22" cy="646.03" fill="url(#SvgjsRadialGradient1019)"></circle><circle r="25" cx="1151.69" cy="67.09" fill="url(#SvgjsRadialGradient1019)"></circle><circle r="25" cx="1138.19" cy="495.49" fill="url(#SvgjsRadialGradient1019)"></circle><circle r="25" cx="1261.15" cy="90.8" fill="url(#SvgjsRadialGradient1019)"></circle><circle r="25" cx="1461.97" cy="46.02" fill="url(#SvgjsRadialGradient1019)"></circle><circle r="25" cx="1407.93" cy="210.97" fill="url(#SvgjsRadialGradient1019)"></circle><circle r="25" cx="1592.83" cy="70.11" fill="url(#SvgjsRadialGradient1019)"></circle><circle r="25" cx="1599.48" cy="230.69" fill="url(#SvgjsRadialGradient1019)"></circle><circle r="25" cx="1573.53" cy="389.31" fill="url(#SvgjsRadialGradient1019)"></circle><circle r="5" cx="-40.43" cy="504.97" fill="#8b9ad9"></circle><circle r="5" cx="37.85" cy="513.59" fill="#8b9ad9"></circle><circle r="5" cx="70.36" cy="699.68" fill="#8b9ad9"></circle><circle r="5" cx="219.65" cy="500.69" fill="#8b9ad9"></circle><circle r="5" cx="225.2" cy="706.08" fill="#8b9ad9"></circle><circle r="5" cx="513.93" cy="505.45" fill="#8b9ad9"></circle><circle r="5" cx="549.79" cy="664.79" fill="#8b9ad9"></circle><circle r="5" cx="664.89" cy="372.8" fill="#8b9ad9"></circle><circle r="5" cx="699.67" cy="539.93" fill="#8b9ad9"></circle><circle r="5" cx="805.71" cy="410.65" fill="#8b9ad9"></circle><circle r="5" cx="816.85" cy="517.05" fill="#8b9ad9"></circle><circle r="5" cx="937.93" cy="341.32" fill="#8b9ad9"></circle><circle r="5" cx="1003.04" cy="531.82" fill="#8b9ad9"></circle><circle r="5" cx="1001.58" cy="662.14" fill="#8b9ad9"></circle><circle r="5" cx="1110.33" cy="229.61" fill="#8b9ad9"></circle><circle r="5" cx="1158.78" cy="401.46" fill="#8b9ad9"></circle><circle r="5" cx="1131.16" cy="677.26" fill="#8b9ad9"></circle><circle r="5" cx="1248.2" cy="-72.59" fill="#8b9ad9"></circle><circle r="5" cx="1300.6" cy="223.14" fill="#8b9ad9"></circle><circle r="5" cx="1268.21" cy="391.9" fill="#8b9ad9"></circle><circle r="5" cx="1252.93" cy="709.82" fill="#8b9ad9"></circle><circle r="5" cx="1409.38" cy="-53.16" fill="#8b9ad9"></circle><circle r="5" cx="1452.56" cy="360.75" fill="#8b9ad9"></circle><circle r="5" cx="1427.3" cy="518.88" fill="#8b9ad9"></circle><circle r="5" cx="1458.67" cy="649.73" fill="#8b9ad9"></circle><circle r="5" cx="1538.56" cy="534.78" fill="#8b9ad9"></circle><circle r="5" cx="1543.48" cy="646.61" fill="#8b9ad9"></circle></g><defs><mask id="SvgjsMask1017"><rect width="1440" height="560" fill="#ffffff"></rect></mask><linearGradient x1="15.28%" y1="-39.29%" x2="84.72%" y2="139.29%" gradientUnits="userSpaceOnUse" id="SvgjsLinearGradient1018"><stop stop-color="#0e2a47" offset="0"></stop><stop stop-color="rgba(29, 68, 119, 1)" offset="1"></stop></linearGradient><radialGradient id="SvgjsRadialGradient1019"><stop stop-color="#ffffff" offset="0.1"></stop><stop stop-color="#1735b3" offset="0.2"></stop><stop stop-color="rgba(23, 53, 179, 0)" offset="1"></stop></radialGradient></defs></svg>